<svg width="193" height="48" viewBox="0 0 193 48" fill="none" xmlns="http://www.w3.org/2000/svg">
<rect width="193" height="48" fill="white"/>
<g clip-path="url(#clip0_0_2822)">
<g filter="url(#filter0_dd_0_2822)">
<path fill-rule="evenodd" clip-rule="evenodd" d="M6 4C4.89543 4 4 4.89543 4 6V42C4 43.1046 4.89543 44 6 44H187C188.105 44 189 43.1046 189 42V6C189 4.89543 188.105 4 187 4H6Z" fill="white"/>
</g>
</g>
<path fill-rule="evenodd" clip-rule="evenodd" d="M32.64 24.2045C32.64 23.5664 32.5827 22.9527 32.4764 22.3636H24V25.845H28.8436C28.635 26.97 28.0009 27.9232 27.0477 28.5614V30.8195H29.9564C31.6582 29.2527 32.64 26.9455 32.64 24.2045V24.2045Z" fill="#4285F4"/>
<path fill-rule="evenodd" clip-rule="evenodd" d="M24 33C26.43 33 28.4673 32.1941 29.9564 30.8195L27.0477 28.5614C26.2418 29.1014 25.2109 29.4205 24 29.4205C21.6559 29.4205 19.6718 27.8373 18.9641 25.71H15.9573V28.0418C17.4382 30.9832 20.4818 33 24 33V33Z" fill="#34A853"/>
<path fill-rule="evenodd" clip-rule="evenodd" d="M18.9641 25.71C18.7841 25.17 18.6818 24.5932 18.6818 24C18.6818 23.4068 18.7841 22.83 18.9641 22.29V19.9582H15.9573C15.3477 21.1732 15 22.5477 15 24C15 25.4523 15.3477 26.8268 15.9573 28.0418L18.9641 25.71V25.71Z" fill="#FBBC05"/>
<path fill-rule="evenodd" clip-rule="evenodd" d="M24 18.5795C25.3214 18.5795 26.5077 19.0336 27.4405 19.9255L30.0218 17.3441C28.4632 15.8918 26.4259 15 24 15C20.4818 15 17.4382 17.0168 15.9573 19.9582L18.9641 22.29C19.6718 20.1627 21.6559 18.5795 24 18.5795V18.5795Z" fill="#EA4335"/>
<path d="M60.2139 26.4365C60.2139 25.999 60.0589 25.6618 59.749 25.4248C59.4437 25.1878 58.89 24.9486 58.0879 24.707C57.2858 24.4655 56.6478 24.1966 56.1738 23.9004C55.2669 23.3307 54.8135 22.5879 54.8135 21.6719C54.8135 20.8698 55.1393 20.209 55.791 19.6895C56.4473 19.1699 57.2972 18.9102 58.3408 18.9102C59.0335 18.9102 59.651 19.0378 60.1934 19.293C60.7357 19.5482 61.1618 19.9128 61.4717 20.3867C61.7816 20.8561 61.9365 21.3779 61.9365 21.9521H60.2139C60.2139 21.4326 60.0498 21.027 59.7217 20.7354C59.3981 20.4391 58.9333 20.291 58.3271 20.291C57.762 20.291 57.3223 20.4118 57.0078 20.6533C56.6979 20.8949 56.543 21.2321 56.543 21.665C56.543 22.0296 56.7116 22.335 57.0488 22.5811C57.3861 22.8226 57.9421 23.0596 58.7168 23.292C59.4915 23.5199 60.1136 23.7819 60.583 24.0781C61.0524 24.3698 61.3965 24.707 61.6152 25.0898C61.834 25.4681 61.9434 25.9124 61.9434 26.4229C61.9434 27.2523 61.6243 27.9131 60.9863 28.4053C60.3529 28.8929 59.4915 29.1367 58.4023 29.1367C57.6823 29.1367 57.0192 29.0046 56.4131 28.7402C55.8115 28.4714 55.3421 28.1022 55.0049 27.6328C54.6722 27.1634 54.5059 26.6165 54.5059 25.9922H56.2354C56.2354 26.5573 56.4222 26.9948 56.7959 27.3047C57.1696 27.6146 57.7051 27.7695 58.4023 27.7695C59.0039 27.7695 59.4551 27.6488 59.7559 27.4072C60.0612 27.1611 60.2139 26.8376 60.2139 26.4365ZM65.2861 29H63.625V21.6035H65.2861V29ZM63.5225 19.6826C63.5225 19.4274 63.6022 19.2155 63.7617 19.0469C63.9258 18.8783 64.1582 18.7939 64.459 18.7939C64.7598 18.7939 64.9922 18.8783 65.1562 19.0469C65.3203 19.2155 65.4023 19.4274 65.4023 19.6826C65.4023 19.9333 65.3203 20.1429 65.1562 20.3115C64.9922 20.4756 64.7598 20.5576 64.459 20.5576C64.1582 20.5576 63.9258 20.4756 63.7617 20.3115C63.6022 20.1429 63.5225 19.9333 63.5225 19.6826ZM67.0293 25.2471C67.0293 24.0986 67.2982 23.1826 67.8359 22.499C68.3783 21.8109 69.096 21.4668 69.9893 21.4668C70.8324 21.4668 71.4954 21.7607 71.9785 22.3486L72.0537 21.6035H73.5508V28.7744C73.5508 29.7451 73.2477 30.5107 72.6416 31.0713C72.04 31.6318 71.2266 31.9121 70.2012 31.9121C69.6589 31.9121 69.1279 31.7982 68.6084 31.5703C68.0934 31.347 67.7015 31.0531 67.4326 30.6885L68.2188 29.6904C68.7292 30.2965 69.3581 30.5996 70.1055 30.5996C70.6569 30.5996 71.0921 30.4492 71.4111 30.1484C71.7301 29.8522 71.8896 29.4147 71.8896 28.8359V28.3369C71.4111 28.8701 70.7731 29.1367 69.9756 29.1367C69.1097 29.1367 68.401 28.7926 67.8496 28.1045C67.3027 27.4163 67.0293 26.4639 67.0293 25.2471ZM68.6836 25.3906C68.6836 26.1335 68.834 26.7191 69.1348 27.1475C69.4401 27.5713 69.8617 27.7832 70.3994 27.7832C71.0693 27.7832 71.5661 27.4961 71.8896 26.9219V23.668C71.5752 23.1074 71.083 22.8271 70.4131 22.8271C69.8662 22.8271 69.4401 23.0436 69.1348 23.4766C68.834 23.9095 68.6836 24.5475 68.6836 25.3906ZM77.0234 21.6035L77.0713 22.458C77.6182 21.7972 78.3359 21.4668 79.2246 21.4668C80.765 21.4668 81.5488 22.3486 81.5762 24.1123V29H79.915V24.208C79.915 23.7386 79.8125 23.3923 79.6074 23.1689C79.4069 22.9411 79.0765 22.8271 78.6162 22.8271C77.9463 22.8271 77.4473 23.1302 77.1191 23.7363V29H75.458V21.6035H77.0234ZM88.9658 29H87.3047V21.6035H88.9658V29ZM87.2021 19.6826C87.2021 19.4274 87.2819 19.2155 87.4414 19.0469C87.6055 18.8783 87.8379 18.7939 88.1387 18.7939C88.4395 18.7939 88.6719 18.8783 88.8359 19.0469C89 19.2155 89.082 19.4274 89.082 19.6826C89.082 19.9333 89 20.1429 88.8359 20.3115C88.6719 20.4756 88.4395 20.5576 88.1387 20.5576C87.8379 20.5576 87.6055 20.4756 87.4414 20.3115C87.2819 20.1429 87.2021 19.9333 87.2021 19.6826ZM92.541 21.6035L92.5889 22.458C93.1357 21.7972 93.8535 21.4668 94.7422 21.4668C96.2826 21.4668 97.0664 22.3486 97.0938 24.1123V29H95.4326V24.208C95.4326 23.7386 95.3301 23.3923 95.125 23.1689C94.9245 22.9411 94.5941 22.8271 94.1338 22.8271C93.4639 22.8271 92.9648 23.1302 92.6367 23.7363V29H90.9756V21.6035H92.541ZM109.214 26.71L110.39 21.6035H112.01L109.993 29H108.626L107.04 23.9209L105.481 29H104.114L102.091 21.6035H103.711L104.907 26.6553L106.425 21.6035H107.676L109.214 26.71ZM115.106 29H113.445V21.6035H115.106V29ZM113.343 19.6826C113.343 19.4274 113.423 19.2155 113.582 19.0469C113.746 18.8783 113.979 18.7939 114.279 18.7939C114.58 18.7939 114.812 18.8783 114.977 19.0469C115.141 19.2155 115.223 19.4274 115.223 19.6826C115.223 19.9333 115.141 20.1429 114.977 20.3115C114.812 20.4756 114.58 20.5576 114.279 20.5576C113.979 20.5576 113.746 20.4756 113.582 20.3115C113.423 20.1429 113.343 19.9333 113.343 19.6826ZM119.222 19.8057V21.6035H120.527V22.834H119.222V26.9629C119.222 27.2454 119.276 27.4505 119.386 27.5781C119.5 27.7012 119.7 27.7627 119.987 27.7627C120.179 27.7627 120.372 27.7399 120.568 27.6943V28.9795C120.19 29.0843 119.826 29.1367 119.475 29.1367C118.199 29.1367 117.561 28.4326 117.561 27.0244V22.834H116.344V21.6035H117.561V19.8057H119.222ZM123.658 22.4102C124.201 21.7812 124.886 21.4668 125.716 21.4668C127.293 21.4668 128.092 22.3669 128.115 24.167V29H126.454V24.2285C126.454 23.7181 126.342 23.3581 126.119 23.1484C125.9 22.9342 125.577 22.8271 125.148 22.8271C124.483 22.8271 123.986 23.1234 123.658 23.7158V29H121.997V18.5H123.658V22.4102ZM141.514 27.708C141.154 28.1774 140.655 28.5329 140.017 28.7744C139.379 29.016 138.654 29.1367 137.843 29.1367C137.009 29.1367 136.271 28.9476 135.628 28.5693C134.985 28.1911 134.489 27.651 134.138 26.9492C133.791 26.2428 133.611 25.4202 133.598 24.4814V23.7021C133.598 22.1982 133.958 21.0247 134.678 20.1816C135.398 19.334 136.403 18.9102 137.692 18.9102C138.8 18.9102 139.679 19.1836 140.331 19.7305C140.983 20.2773 141.375 21.0658 141.507 22.0957H139.812C139.62 20.8971 138.925 20.2979 137.727 20.2979C136.952 20.2979 136.362 20.5781 135.956 21.1387C135.555 21.6947 135.348 22.5127 135.334 23.5928V24.3584C135.334 25.4339 135.56 26.2702 136.011 26.8672C136.466 27.4596 137.098 27.7559 137.904 27.7559C138.788 27.7559 139.417 27.5553 139.791 27.1543V25.2061H137.74V23.8936H141.514V27.708ZM143.161 25.2334C143.161 24.5088 143.305 23.8571 143.592 23.2783C143.879 22.695 144.282 22.2484 144.802 21.9385C145.321 21.624 145.918 21.4668 146.593 21.4668C147.591 21.4668 148.4 21.7881 149.02 22.4307C149.644 23.0732 149.981 23.9255 150.031 24.9873L150.038 25.377C150.038 26.1061 149.897 26.7578 149.614 27.332C149.336 27.9062 148.935 28.3506 148.411 28.665C147.892 28.9795 147.29 29.1367 146.606 29.1367C145.563 29.1367 144.727 28.7904 144.098 28.0977C143.473 27.4004 143.161 26.473 143.161 25.3154V25.2334ZM144.822 25.377C144.822 26.138 144.979 26.735 145.294 27.168C145.608 27.5964 146.046 27.8105 146.606 27.8105C147.167 27.8105 147.602 27.5918 147.912 27.1543C148.227 26.7168 148.384 26.0765 148.384 25.2334C148.384 24.486 148.222 23.8936 147.898 23.4561C147.579 23.0186 147.144 22.7998 146.593 22.7998C146.05 22.7998 145.62 23.0163 145.301 23.4492C144.982 23.8776 144.822 24.5202 144.822 25.377ZM151.351 25.2334C151.351 24.5088 151.494 23.8571 151.781 23.2783C152.068 22.695 152.472 22.2484 152.991 21.9385C153.511 21.624 154.108 21.4668 154.782 21.4668C155.78 21.4668 156.589 21.7881 157.209 22.4307C157.833 23.0732 158.171 23.9255 158.221 24.9873L158.228 25.377C158.228 26.1061 158.086 26.7578 157.804 27.332C157.526 27.9062 157.125 28.3506 156.601 28.665C156.081 28.9795 155.479 29.1367 154.796 29.1367C153.752 29.1367 152.916 28.7904 152.287 28.0977C151.663 27.4004 151.351 26.473 151.351 25.3154V25.2334ZM153.012 25.377C153.012 26.138 153.169 26.735 153.483 27.168C153.798 27.5964 154.235 27.8105 154.796 27.8105C155.356 27.8105 155.792 27.5918 156.102 27.1543C156.416 26.7168 156.573 26.0765 156.573 25.2334C156.573 24.486 156.411 23.8936 156.088 23.4561C155.769 23.0186 155.334 22.7998 154.782 22.7998C154.24 22.7998 153.809 23.0163 153.49 23.4492C153.171 23.8776 153.012 24.5202 153.012 25.377ZM159.561 25.2471C159.561 24.0986 159.829 23.1826 160.367 22.499C160.91 21.8109 161.627 21.4668 162.521 21.4668C163.364 21.4668 164.027 21.7607 164.51 22.3486L164.585 21.6035H166.082V28.7744C166.082 29.7451 165.779 30.5107 165.173 31.0713C164.571 31.6318 163.758 31.9121 162.732 31.9121C162.19 31.9121 161.659 31.7982 161.14 31.5703C160.625 31.347 160.233 31.0531 159.964 30.6885L160.75 29.6904C161.26 30.2965 161.889 30.5996 162.637 30.5996C163.188 30.5996 163.623 30.4492 163.942 30.1484C164.261 29.8522 164.421 29.4147 164.421 28.8359V28.3369C163.942 28.8701 163.304 29.1367 162.507 29.1367C161.641 29.1367 160.932 28.7926 160.381 28.1045C159.834 27.4163 159.561 26.4639 159.561 25.2471ZM161.215 25.3906C161.215 26.1335 161.365 26.7191 161.666 27.1475C161.971 27.5713 162.393 27.7832 162.931 27.7832C163.601 27.7832 164.097 27.4961 164.421 26.9219V23.668C164.106 23.1074 163.614 22.8271 162.944 22.8271C162.397 22.8271 161.971 23.0436 161.666 23.4766C161.365 23.9095 161.215 24.5475 161.215 25.3906ZM169.78 29H168.119V18.5H169.78V29ZM175.071 29.1367C174.019 29.1367 173.164 28.8063 172.508 28.1455C171.856 27.4801 171.53 26.596 171.53 25.4932V25.2881C171.53 24.5498 171.672 23.8913 171.954 23.3125C172.241 22.7292 172.642 22.2757 173.157 21.9521C173.672 21.6286 174.246 21.4668 174.88 21.4668C175.887 21.4668 176.664 21.7881 177.211 22.4307C177.762 23.0732 178.038 23.9824 178.038 25.1582V25.8281H173.205C173.255 26.4388 173.458 26.9219 173.813 27.2773C174.174 27.6328 174.625 27.8105 175.167 27.8105C175.928 27.8105 176.548 27.5029 177.026 26.8877L177.922 27.7422C177.626 28.1842 177.229 28.5283 176.732 28.7744C176.24 29.016 175.687 29.1367 175.071 29.1367ZM174.873 22.7998C174.417 22.7998 174.048 22.9593 173.766 23.2783C173.488 23.5973 173.31 24.0417 173.232 24.6113H176.397V24.4883C176.361 23.9323 176.213 23.513 175.953 23.2305C175.693 22.9434 175.333 22.7998 174.873 22.7998Z" fill="black" fill-opacity="0.54"/>
<defs>
<filter id="filter0_dd_0_2822" x="3" y="3" width="187" height="43" filterUnits="userSpaceOnUse" color-interpolation-filters="sRGB">
<feFlood flood-opacity="0" result="BackgroundImageFix"/>
<feColorMatrix in="SourceAlpha" type="matrix" values="0 0 0 0 0 0 0 0 0 0 0 0 0 0 0 0 0 0 127 0" result="hardAlpha"/>
<feOffset dy="1"/>
<feGaussianBlur stdDeviation="0.5"/>
<feColorMatrix type="matrix" values="0 0 0 0 0 0 0 0 0 0 0 0 0 0 0 0 0 0 0.24 0"/>
<feBlend mode="normal" in2="BackgroundImageFix" result="effect1_dropShadow_0_2822"/>
<feColorMatrix in="SourceAlpha" type="matrix" values="0 0 0 0 0 0 0 0 0 0 0 0 0 0 0 0 0 0 127 0" result="hardAlpha"/>
<feOffset/>
<feGaussianBlur stdDeviation="0.5"/>
<feColorMatrix type="matrix" values="0 0 0 0 0 0 0 0 0 0 0 0 0 0 0 0 0 0 0.12 0"/>
<feBlend mode="normal" in2="effect1_dropShadow_0_2822" result="effect2_dropShadow_0_2822"/>
<feBlend mode="normal" in="SourceGraphic" in2="effect2_dropShadow_0_2822" result="shape"/>
</filter>
<clipPath id="clip0_0_2822">
<rect width="185" height="40" fill="white" transform="translate(4 4)"/>
</clipPath>
</defs>
</svg>
